<svg xmlns="http://www.w3.org/2000/svg" width="11" height="11" viewBox="0 0 11 11">
  <path id="times-circle-regular" d="M25.3,16.736l-3.248,3.248L25.3,23.232a.627.627,0,0,1,0,.888l-1.18,1.18a.627.627,0,0,1-.888,0l-3.248-3.248L16.736,25.3a.627.627,0,0,1-.888,0l-1.18-1.18a.627.627,0,0,1,0-.888l3.248-3.248-3.248-3.248a.627.627,0,0,1,0-.888l1.18-1.18a.627.627,0,0,1,.888,0l3.248,3.248,3.248-3.248a.627.627,0,0,1,.888,0l1.18,1.18a.627.627,0,0,1,0,.888Z" transform="translate(-14.484 -14.484)" fill="#fff"/>
</svg>
